
<svg version="1.1" id="Layer_1" xmlns="http://www.w3.org/2000/svg" xmlns:xlink="http://www.w3.org/1999/xlink" x="0px" y="0px"
	 width="28px" height="28px" viewBox="0 0 28 28" enable-background="new 0 0 28 28" xml:space="preserve">
<g>
	<rect x="2.5" y="8.5" fill="none" stroke="#010101" stroke-linejoin="round" stroke-miterlimit="10" width="5" height="18"/>
	<rect x="7.5" y="3.5" fill="none" stroke="#010101" stroke-linejoin="round" stroke-miterlimit="10" width="18" height="5"/>
	<rect x="2.5" y="3.5" fill="none" stroke="#010101" stroke-linejoin="round" stroke-miterlimit="10" width="5" height="5"/>
	<polygon fill="none" stroke="#010101" stroke-linejoin="round" stroke-miterlimit="10" points="20,26.5 7.5,26.5 7.5,8.5 25.5,8.5 
		25.5,21 	"/>
	<polyline fill="none" stroke="#010101" stroke-linejoin="round" stroke-miterlimit="10" points="19.5,26.5 19.5,20.5 25.5,20.5 	
		"/>
	<line fill="none" stroke="#010101" stroke-miterlimit="10" x1="10.5" y1="8.5" x2="10.5" y2="5"/>
	<line fill="none" stroke="#010101" stroke-miterlimit="10" x1="14.5" y1="8.5" x2="14.5" y2="6"/>
	<line fill="none" stroke="#010101" stroke-miterlimit="10" x1="18.5" y1="8.5" x2="18.5" y2="6"/>
	<line fill="none" stroke="#010101" stroke-miterlimit="10" x1="22.5" y1="8.5" x2="22.5" y2="5"/>
	<line fill="none" stroke="#010101" stroke-miterlimit="10" x1="7.5" y1="23.5" x2="4" y2="23.5"/>
	<line fill="none" stroke="#010101" stroke-miterlimit="10" x1="7.5" y1="19.5" x2="5" y2="19.5"/>
	<line fill="none" stroke="#010101" stroke-miterlimit="10" x1="7.5" y1="15.5" x2="5" y2="15.5"/>
	<line fill="none" stroke="#010101" stroke-miterlimit="10" x1="7.5" y1="11.5" x2="4" y2="11.5"/>
</g>
</svg>
