<?xml version="1.0" encoding="utf-8"?>
<!-- Generator: Adobe Illustrator 16.0.0, SVG Export Plug-In . SVG Version: 6.00 Build 0)  -->
<!DOCTYPE svg PUBLIC "-//W3C//DTD SVG 1.1//EN" "http://www.w3.org/Graphics/SVG/1.1/DTD/svg11.dtd">
<svg version="1.1" id="Layer_1" xmlns="http://www.w3.org/2000/svg" xmlns:xlink="http://www.w3.org/1999/xlink" x="0px" y="0px"
	 width="258.879px" height="64.955px" viewBox="0 0 258.879 64.955" enable-background="new 0 0 258.879 64.955"
	 xml:space="preserve">
<g>
	<path d="M23.619,33.613c0-12.12-21.779-2.58-21.779-19.74C1.84,10.094,4,1.454,18.819,1.454c6.6,0,9.839,1.02,9.839,1.02v10.2
		h-6.18v-4.62c0,0-1.44-0.6-4.14-0.6s-8.7,0.779-8.7,6.06c0,9.959,21.479,1.8,21.479,19.859c0,2.039-0.42,14.1-17.219,14.1
		c-9.18,0-12.899-2.4-12.899-2.4v-11.52h6.3v6.359c0,0,1.2,1.621,6.6,1.621C23.379,41.533,23.619,35.052,23.619,33.613z"/>
	<path d="M46.54,46.992c-11.58,0-14.04-8.52-14.04-13.318c0-4.14,1.56-15.18,15.54-15.18c3.18,0,5.939,0.9,5.939,0.9v9.119H48.52
		v-4.08c0,0-0.78-0.359-2.04-0.359c-3.3,0-7.32,2.46-7.32,9.418c0,4.5,2.52,8.041,8.4,8.041c6.299,0,11.759-5.1,13.799-9.42
		c0.06,0.119,1.68,2.4,2.46,3.359c0.18,0.24,0.18,0.359,0.18,0.48C63.999,37.392,58.779,46.992,46.54,46.992z"/>
	<path d="M66.04,19.514v4.56c0,0,0,0.239,0.12,0.239c0.06,0,0.12-0.06,0.24-0.239c0.12-0.181,3.42-5.34,10.44-5.34
		c0.54,0,1.68,0.06,2.04,0.3v10.68H73.48v-4.2c-2.28,0-3.9,1.44-4.98,2.94c-1.92,2.699-2.1,6.48-2.1,7.679v9.779H59.98V19.514H66.04
		z"/>
	<path d="M107.679,35.412c0,0,2.04,2.641,2.52,3.48c0.12,0.18,0.12,0.301,0.12,0.359c0,1.801-4.68,7.74-14.279,7.74
		c-14.64,0-14.879-10.318-14.879-14.039c0-8.52,5.4-14.519,13.739-14.519h0.06c0.84,0,9,0.119,9,8.52v0.06
		c0,0.84-0.24,9.54-12.6,9.54c-0.72,0-2.4-0.119-2.82-0.24c-0.06,0-0.12,0.061-0.12,0.061c0,0.301,0.18,5.34,8.939,5.34
		C101.08,41.712,105.339,40.152,107.679,35.412z M94,23.833c-4.02,0-6.12,3.78-6.12,7.26c0,0.119,0.66,0.42,2.82,0.42
		c6.66,0,6.78-4.081,6.78-4.68C97.479,24.013,94.839,23.833,94,23.833z"/>
	<path d="M107.319,32.593c0-3.6,1.86-14.16,13.679-14.16c0.9,0,9.12,0.119,9.12,8.52c0,0.899-0.24,9.66-12.6,9.66
		c-0.18,0-2.34-0.18-2.76-0.301c-0.06,0-0.12,0.061-0.12,0.121c0,0.24,0.66,5.279,8.76,5.279c4.74,0,9.659-2.041,12.119-6.6
		c0,0,1.68,2.4,2.4,3.42c0.18,0.24,0.24,0.359,0.24,0.48c0,1.859-4.62,7.979-15.24,7.979
		C107.739,46.992,107.319,36.373,107.319,32.593z M120.159,23.833c-3.96,0-6.12,3.899-6.12,7.26c0,0.119,0.66,0.42,2.82,0.42
		c6.66,0,6.78-4.081,6.78-4.68C123.639,23.953,120.879,23.833,120.159,23.833z"/>
	<path d="M132.639,24.913v-5.399h8.94v2.52c0,0.06,0,0.18,0.06,0.18c0.059,0,0.12-0.06,0.24-0.24c0,0,2.34-3.06,7.559-3.06
		c4.68,0,8.58,2.521,8.58,8.16v9.719c0,1.26,0.48,3.42,3,3.42c1.5,0,3.539-0.779,4.68-4.199l2.459,3.42c0,0,0.182,0.299,0.182,0.539
		c0,1.381-2.701,6.66-9.18,6.66c-4.68,0-7.5-3.42-7.5-7.381V28.873c0-3.48-3.061-3.96-3.961-3.96c-3.718,0-5.759,3.239-5.759,6.959
		v14.039h-6.419V24.913H132.639z"/>
	<path d="M171.999,36.613c0,1.32,0.42,3.6,2.939,3.6c1.5,0,3.539-0.779,4.68-4.199l2.461,3.42c0,0,0.18,0.299,0.18,0.539
		c0,1.439-2.701,6.66-9.18,6.66c-4.68,0-7.5-3.42-7.5-7.381V24.913h-2.58v-5.399h9V36.613z M168.579,14.293
		c-2.221,0-3.961-1.8-3.961-4.02c0-2.16,1.74-3.96,3.961-3.96c2.16,0,3.959,1.8,3.959,3.96
		C172.538,12.493,170.739,14.293,168.579,14.293z"/>
	<path d="M202.057,37.332c0,0.48,0.061,2.82,2.4,2.82c1.141,0,2.76-0.66,3.48-3.719l2.459,3.359c0,0,0.18,0.301,0.18,0.539
		c0,1.26-2.34,6.361-8.398,6.361c-4.5,0-6.48-3.66-6.48-7.381V28.933c0-3.54-3.119-4.02-3.959-4.02c-3.721,0-5.76,3.239-5.76,6.959
		v14.039h-6.42V24.913h-2.881v-5.399h8.939v2.52c0,0.06,0,0.18,0.061,0.18s0.119-0.06,0.24-0.24c0,0,2.34-3.06,7.559-3.06
		c4.74,0,8.58,2.58,8.58,8.22V37.332z"/>
	<path d="M209.797,53.111h5.52v4.5c0,0,0.84,0.061,1.32,0.061c8.34,0,8.939-7.26,8.939-10.74v-3.119c0-0.24-0.059-0.301-0.119-0.301
		c-0.121,0-0.301,0.24-0.301,0.24c-2.039,2.221-4.74,2.941-7.619,2.941c-9.359,0-9.9-10.381-9.9-11.881
		c0-8.159,3.961-16.319,16.199-16.319c3.66,0,7.98,1.021,7.98,1.14v25.859c0,3.721,0,17.641-16.799,17.641
		c-3.42,0-5.221-0.602-5.221-0.602V53.111z M225.577,24.253c0,0-0.84-0.36-3-0.36c-3.119,0-8.279,2.221-8.279,9.839
		c0,1.5,0.121,6.84,5.1,6.84c4.02,0,6.18-3.66,6.18-6.66V24.253z"/>
	<path d="M250.536,37.992c0-5.818-14.398-1.68-14.398-11.279c0-0.66,0.18-7.92,11.76-7.92c4.979,0,7.318,0.54,7.318,0.54v5.16
		c0,0-2.879-0.66-7.258-0.66c-1.381,0-5.4,0-5.4,2.7c0,4.439,14.52,0.899,14.52,11.218c0,2.701-1.32,9.121-12.48,9.121
		c-7.139,0-9.18-1.201-9.18-1.201V34.933h5.701v6.238c0,0,1.139,0.48,3.359,0.48C249.877,41.652,250.536,39.671,250.536,37.992z"/>
</g>
</svg>
