<?xml version="1.0" encoding="utf-8"?>
<!-- Generator: Adobe Illustrator 16.0.0, SVG Export Plug-In . SVG Version: 6.00 Build 0)  -->
<!DOCTYPE svg PUBLIC "-//W3C//DTD SVG 1.1//EN" "http://www.w3.org/Graphics/SVG/1.1/DTD/svg11.dtd">
<svg version="1.1" xmlns="http://www.w3.org/2000/svg" xmlns:xlink="http://www.w3.org/1999/xlink" x="0px" y="0px" width="400px"
	 height="131.094px" viewBox="0 0 400 131.094" enable-background="new 0 0 400 131.094" xml:space="preserve">
<g id="Layer_2" display="none">
	<rect x="-4.751" y="-7.58" display="inline" fill="#030304" width="414.917" height="154.144"/>
</g>
<g id="Layer_1" display="none">
	<g display="inline">
		<g>
			<path fill="#FFFFFF" d="M29.184,30.304c-6.797,5.133-7.995,9.176-7.766,12.446c0.223,3.183,3.481,5.741,6.028,6.064
				c2.703,0.344,10.987,1.297,13.866,1.793c12.903,2.225,11.822,13.564,11.425,18.427c-0.344,4.22-2.87,11.069-8.196,18.439
				c-5.26,7.278-12.324,12.753-20.04,16.42c-7.56,3.592-12.377,1.576-15.519-1.189C5.53,99.665,3.76,92.31,5.981,87.491
				c1.519-3.295,6.199-8.669,10.408-8.744c5.499-0.097,5.035,4.583,5.035,4.583s-6.769,4.408-5.457,8.267
				c2.462,7.239,8.573,2.359,11.145,0.62c6.063-4.102,8.793-10.182,11.458-15.87c2.807-5.991,3.628-11.312,2.059-13.568
				c-1.141-1.642-5.557-1.904-14.128-3.872c-9.474-2.175-11.236-3.478-13.992-8.703c-5.425-10.286,3.638-21.5,10.72-27.693
				c3.619-3.165,10.661-8.239,15.363-10.403c10.51-4.837,15.696-1.859,17.177-0.104c1.857,2.2,3.267,8.006,2.148,15.747
				c-1.098,7.592-5.22,11.609-8.044,13.169c-2.135,1.18-5.169-0.349-5.169-0.349s1.083-2.022,1.502-4.682
				c0.247-1.561,1.186-5.302,1.234-8.377c0.035-2.239,0.292-4.052,0.201-4.916c-0.214-2.019-1.233-2.474-1.233-2.474
				S42.193,20.479,29.184,30.304z"/>
			<path fill="#FFFFFF" d="M72.305,84.749c-5.093-0.239-11.032-3.89-14.627-11.628c-2.497-5.375-3.451-14.079,0.075-23.704
				c4.002-10.926,12.006-13.972,15.002-14.555c7.749-1.508,11.366,3.634,12.843,9.722c0.575,2.367,0.839,9.177-7.007,7.939
				c0,0,0.47-1.365-0.031-4.004c-0.484-2.551-2.75-5.838-4.402-6.448c-0.728-0.269-5.676,3.079-7.293,9.415
				c-3.05,11.953-1.252,16.952,1.275,20.781c1.837,2.783,9.51,10.001,20.163-0.056c5.063-4.78,7.047-19.942,7.047-19.942
				c2.328,0.342,6.184,0.427,5.951,3.758C100.177,72.116,89.413,85.553,72.305,84.749z"/>
			<path fill="#FFFFFF" d="M136.827,51.083c-0.958,6.665-4.263,18.523-10.178,22.665c-2.481,1.737-5.078,3.068-6.921,3.587
				c-3.619,1.019-8.814-0.131-10.521-1.863c-1.757-1.782-1.831-7.187-1.784-11.958c0.046-4.667,3.032-11.978,3.794-15.387
				c0.573-2.565-1.984-8.14-3.734-10.232c-0.218-0.26-3.274-0.881-4.101-1.482c0,0-0.359,17.391-2.427,20.031
				c-0.658,0.839-2.097,0.966-4.289,1.326c0,0-2.232,0.11-2.396-0.237c-1.498-3.164,3.146-21.628,2.633-22.117
				c-0.677-0.645-4.249-0.594-5.682-1.071c-4.068-1.354-7.899-5.988-8.293-10.843c-0.294-3.624,4.674-7.122,7.649-7.385
				c4.512-0.4,8.482,2.106,11.283,5.04c2.8,2.935,2.831,8.364,2.831,8.364s7.089-0.163,10.61,2.603
				c6.605,5.187,3.904,21.153,2.758,26.552c-0.553,2.606-0.872,4.813-0.693,6.145c0.178,1.332,1.151,2.868,1.921,3.177
				c4.99,2.003,12.451-21.694,12.451-21.694C134.032,46.687,137.202,48.478,136.827,51.083z M95.966,24.776
				c-1.507-2.319-3.593-2.629-4.307-2.03c-1.101,0.925-0.773,2.854,0.65,3.979c2.772,2.19,5.212,2.522,5.212,2.522
				S97.326,26.869,95.966,24.776z"/>
			<path fill="#FFFFFF" d="M175.802,48.753c-1.229,12.25-15.687,25.15-30.038,25.941c-6.834,0.376-17.314-4.858-18.328-13.485
				c-0.617-5.247,1.687-14.421,8.774-24.374c7.394-10.382,15.481-13.077,19.041-13.032c12.656,0.161,6.376,18.948,1.062,25.24
				c-7.904,9.358-17.785,10.959-17.785,10.959c0.464,4.634,3.672,6.927,7.354,7.309c12.177,1.261,19.302-10.315,23.198-19.681
				C170.155,45.045,176.032,46.458,175.802,48.753z M139.179,51.299c0,0,3.716-1.116,7.104-3.352
				c6.448-4.255,9.84-16.313,8.033-16.715c-1.156-0.257-7.204,2.035-10.275,7.475C138.703,48.161,139.179,51.299,139.179,51.299z"/>
			<path fill="#FFFFFF" d="M214.903,48.297c-1.956,12.147-17.147,24.172-31.515,24.104c-6.837-0.032-16.976-5.882-17.473-14.554
				c-0.303-5.274,2.537-14.293,10.198-23.806c7.992-9.924,16.22-12.132,19.769-11.875c12.617,0.916,5.23,19.296-0.443,25.259
				c-8.439,8.87-18.393,9.879-18.393,9.879c0.187,4.653,3.25,7.132,6.901,7.732c12.078,1.986,19.87-9.148,24.313-18.262
				C209.487,44.26,215.27,46.02,214.903,48.297z M178.215,48.657c0,0,3.772-0.892,7.285-2.922
				c6.682-3.861,10.786-15.698,9.004-16.207c-1.137-0.324-7.305,1.6-10.692,6.847C177.925,45.493,178.215,48.657,178.215,48.657z"/>
			<path fill="#FFFFFF" d="M259.651,50.101c-3.357,9.659-12.854,22.951-23.708,22.409c-7.344-0.367-9.837-7.785-9.717-11.096
				c0.12-3.311,2.277-12.482,3.598-17.873c1.201-4.907,2.571-11.574,2.091-13.179c-0.138-0.461-1.506-1.411-3.857,0.473
				c-1.603,1.285-6.62,8.588-9.636,17.715c-5.104,15.446-4.921,23.188-4.921,23.188s-6.536-0.532-7.947-6.082
				c-1.036-4.075,3.133-21.921,3.145-23.265c0.012-1.343,1.63-7.343,2.367-10.631c0.895-3.988-0.643-7.35-0.643-7.35
				s2.451-3.12,7.038-1.859c1.415,0.389,3.074,2.103,3.786,3.406c0.736,1.348,0.722,4.051,0.722,4.051
				c0.726,0.021,0.686,1.363,0.686,1.363s3.257-4.608,5.626-6.532c2.325-1.888,5.56-2.358,7.823-1.637
				c2.36,0.752,4.37,3.559,5.933,6.323c1.506,2.665,0.979,7.495,0.099,10.682c-1.034,3.739-4.663,16.419-4.801,19.013
				c-0.143,2.683,0.473,4.06,1.95,4.144c0,0,1.683,0.164,2.996-0.451c5.854-2.739,13.263-18.456,13.263-18.456
				C257.728,45.261,260.722,47.021,259.651,50.101z"/>
			<path fill="#FFFFFF" d="M285.149,53.714c-2.83,6.257-8.537,16.098-15.551,19.471c-2.941,1.415-10.926,3.057-15.173-0.07
				c-3.304-2.433-3.481-6.646-3.484-10.87c-0.003-4.271,1.585-11.826,2.802-17.03s3.118-14.454,3.5-15.624
				c0.447-1.372-0.414-3.984-0.414-3.984s2.899-0.959,7.045-0.035c1.246,0.278,3.393,1.777,4.273,3.727
				c0.706,1.562,0.325,4.692-0.955,9.893c-1.242,5.045-2.476,9.063-4.454,14.78c-1.971,5.695-1.414,7.785-1.592,9.747
				c-0.121,1.337,0.667,1.928,1.195,2.088c1.231,0.372,3.621,0.7,5.931-0.771c5.476-3.488,13.095-17.107,13.095-17.107
				C283.33,49.515,286.222,51.344,285.149,53.714z M258.764,10.668c0.753-4.225,4.198-8.103,8.628-7.346
				c3.687,0.63,5.953,4.622,5.485,9.254c-0.459,4.544-4.918,6.999-8.411,6.396C260.825,18.344,258.142,14.16,258.764,10.668z"/>
			<path fill="#FFFFFF" d="M330.409,60.135c-4.403,9.25-15.327,21.411-26.072,19.687c-7.285-1.169-8.961-8.81-8.482-12.088
				c0.479-3.278,3.627-12.163,5.526-17.377c1.729-4.747,3.817-11.223,3.513-12.871c-0.088-0.473-1.351-1.569-3.898,0.048
				c-1.736,1.103-7.528,7.818-11.521,16.562c-6.758,14.799-7.414,22.517-7.414,22.517s-6.451-1.241-7.254-6.911
				c-0.59-4.163,5.496-21.451,5.653-22.785c0.157-1.333,2.42-7.123,3.511-10.311c1.323-3.867,0.156-7.377,0.156-7.377
				s2.78-2.834,7.214-1.081c1.368,0.541,2.833,2.425,3.4,3.797c0.587,1.42,0.281,4.105,0.281,4.105
				c0.721,0.099,0.534,1.43,0.534,1.43s3.745-4.227,6.314-5.882c2.521-1.624,5.794-1.737,7.971-0.774
				c2.271,1.005,3.972,4.017,5.229,6.934c1.213,2.813,0.164,7.558-1.06,10.628c-1.437,3.603-6.428,15.814-6.847,18.377
				c-0.434,2.651,0.033,4.087,1.498,4.332c0,0,1.655,0.346,3.033-0.122c6.133-2.083,15.228-16.899,15.228-16.899
				C329.014,55.112,331.812,57.188,330.409,60.135z"/>
			<path fill="#FFFFFF" d="M387.907,127.719c0,0,1.517-5.512-18.271-16.995c-12.757-7.403-22.928-10.019-22.928-10.019
				s-5.526,12.692-8.971,16.756c-3.16,3.728-12.056,7.935-21.676,7.205c-11.392-0.864-37.707-6.237-35.708-19.656
				c2.796-18.771,42.507-15.295,58.28-11.766c0,0,3.454-8.313,4.22-11.72c0.138-0.612,1.048-1.049,1.048-1.049
				c-0.425-0.279-13.151,6.228-17.559,3.229c-9.524-6.48-4.62-22.312-0.18-30.592c4.599-8.576,18.096-19.548,26.208-13.96
				c1.862,1.283,4.187,6.653,4.187,6.653c0.108,0.032,1.682-2.455,3.291-3.458c2.807-1.75,11.77,1.744,11.829,2.177
				c0.267,1.931-9.382,17.213-11.946,25.065c-0.58,1.001-0.869,1.502-1.447,2.504c-3.92,9.364-5.851,14.056-9.654,23.458
				c10.509,2.748,21.014,6.973,30.104,12.386c3.865,2.302,11.709,6.958,12.729,8.697
				C394.975,122.624,387.907,127.719,387.907,127.719z M336.892,98.451c-9.418-1.955-19.348-2.736-28.702-0.911
				c-8.898,1.736-15.934,6.169-16.686,9.016c-1.438,5.445,17.721,10.356,23.16,10.818c9.375,0.797,13.332-2.271,15.301-4.484
				C332.512,110.027,336.892,98.451,336.892,98.451z M346.519,72.07c2.15-4.5,4.685-11.803,6.133-16.785
				c0.92-3.165-0.887-6.896-2.797-8.257c-3.583-2.551-11.079,3.56-15.155,11.32c-4.443,8.459-4.582,18.31-0.58,20.637
				C337.694,81.065,343.76,77.843,346.519,72.07z"/>
			<path fill="#FFFFFF" d="M389.277,92.215c-3.366,7.535-22.858,8.869-21.14-3.911c1.34-9.961,9.739-15.165,9.739-15.165
				l-2.293-6.291c-0.271-0.011-2.81,4.215-3.987,5.418c-2.703,2.764-9.041,1.565-9.072,1.159
				c-0.161-2.075,8.183-13.031,10.272-17.329c1.799-3.699,3.271-7.158,3.696-8.289c1.329-3.541,4.962-5.076,7.932-4.26
				c7.785,2.138,7.426,6.465,7.426,6.465s-5.199,3.636-5.905,6.136c-0.754,2.671,2.205,15.392,3.368,19.525
				C390.871,81.207,390.748,88.923,389.277,92.215z M380.403,86.786c0.408-4.001-0.446-6.459-0.446-6.459s-4.573,4.523-4.69,8.541
				C375.183,91.761,379.568,94.975,380.403,86.786z"/>
		</g>
	</g>
</g>
<g id="Layer_1_copy">
	<g>
		<path fill="#FFFFFF" d="M41.312,50.607c-5.573-0.96-16.054,0.202-19.216-5.613c-4.242-7.8,7.555-15.212,12.484-18.586
			c3.342-2.288,7.583-5.604,11.749-6.276c3.103-0.5-0.562,18.29-1.627,20.438c11.968,6.296,18.145-22.832,10.433-29.185
			C44.442,2.577,24.289,20.33,17.801,28.004C6.834,40.978,10.042,55.129,26.5,58.907c4.472,1.027,14.883,0.623,14.916,7.061
			c0.038,7.417-5.055,16.847-9.847,22.303c-2.45,2.79-10.816,10.554-14.521,5.502c-4.527-6.172,4.456-6.916,4.385-10.789
			c-0.15-8.16-10.426-2.307-13.013,0.792c-4.342,5.203-4.917,14.104,0.563,18.928c13.337,11.739,33.667-10.8,39.452-21.371
			C54.016,71.135,56.765,53.271,41.312,50.607C38.433,50.111,54.215,52.832,41.312,50.607z"/>
		<path fill="#FFFFFF" d="M264.466,18.972c9.384,1.62,11.797-14.134,2.926-15.65C258.395,1.785,255.151,17.364,264.466,18.972
			C267.959,19.575,260.825,18.344,264.466,18.972z"/>
		<path fill="#FFFFFF" d="M391.463,116.632c-2.61-4.452-11.116-7.864-15.497-10.285c-8.591-4.748-17.846-8.316-27.336-10.798
			c5.894-14.569,11.854-28.961,19.266-42.824c1.148-2.149,5.644-7.621,2.304-8.972c-2.312-0.935-4.83-1.689-7.326-1.867
			c-2.128-0.152-6.105,3.979-6.315,3.917c-4.779-11.194-14.612-8.915-22.713-1.935c-5.045,4.347-16.776,31.668-25.184,27.226
			c-5.054-0.844,4.324-20.139,5.349-22.709c2.191-5.5,2.467-14.625-4.169-17.562c-5.837-2.583-10.808,2.745-14.285,6.656
			c-0.756-3.155-0.184-7.738-4.216-9.333c-3.887-1.537-7.149-0.493-6.796,3.32c0.896,9.656-6.819,23.972-13.072,30.741
			c-1.401,1.516-10.85,7.303-10.325,1.511c0.515-5.686,1.936-10.479,3.656-15.967c2.688-8.572,8.259-26.175-7.974-22.146
			c2.248,5.928-2.298,16.014-3.603,21.871c-1.142,5.124-5.067,10.838-9.12,14.228c-3.786,3.166-7.508,1.625-6.653-3.427
			c1.328-7.853,5.307-15.612,5.527-23.606c0.14-5.062-3.622-11.994-9.395-11.784c-5.071,0.184-8.271,4.735-10.932,8.485
			c-1.627-4.545-4.118-12.697-11.075-7.979c-2.042,1.385-0.284,3.284-0.236,5.536c0.085,4.07-1.71,8.196-2.465,12.156
			c-1.478,7.751-4.242,14.071-10.42,19.438c-5.76,5.004-20.946,8.384-21.411-3.218c9.128-1.31,17.837-7.243,22.19-15.366
			c3.64-6.793,6.825-21.895-6.006-19.588c-12.974,2.332-23.354,17.187-26.519,29.155c-2.503,9.468-26.409,26.228-28.184,8.496
			c11.904-2.439,21.34-12.199,23.695-24.021c3.855-19.355-17.152-10.038-23.984-1.791c-7.042,8.5-7.754,17.776-12.39,26.984
			c-5.512,10.951-9.288,5.314-7.527-3.809c1.264-6.547,2.32-14.192,0.047-20.632c-1.252-3.549-3.741-5.619-7.387-6.513
			c-1.146-0.281-6.247-0.167-6.32-1.287c-0.473-7.198-8.221-15.518-16.054-12.294c-9.983,4.108-4.406,17.034,4.57,18.053
			c6.431,0.73,3.383,6.655,2.856,11.798c-0.625,6.107-1.377,11.076-2.999,16.419c-4.061,13.379-23.353,21.386-27.317,3.832
			c-1.644-7.279,0.11-17.875,5.771-23.072c4.88-4.48,7.885,4.907,7.1,8.854c12.364,1.951,6.862-22.486-7.913-17.066
			c-15.836,5.809-19.792,30.306-9.914,42.711c10.324,12.967,29.472,5.061,36.322-7.366c5.414-9.821,6.021-23.378,6.295-34.389
			c4.192,3.046,6.88,3.44,7.835,9.866c0.826,5.555-3.737,11.513-3.793,17.235c-0.065,6.681-0.51,13.19,7.53,14.104
			c6.509,0.74,12.93-3.617,16.141-9.046c10.67,11.202,27.559,4.913,36.869-4.703c8.784,13.539,27.27,8.543,37.429-0.25
			c-0.054,4.655,3.76,7.635,8.11,8.119c0.149-7.86,2.478-15.792,4.921-23.188c1.823-5.518,4.42-10.996,7.878-15.688
			c2.305-3.127,6.226-4.822,5.554,0.54c-1.161,9.267-6.821,20.075-5.545,29.425c1.978,14.494,17.844,9.465,24.678,1.885
			c0.597,13.428,16.368,11.92,23.795,4.695c0.221,3.834,3.824,6.436,7.278,7.206c1-7.797,4.179-15.432,7.414-22.517
			c2.463-5.394,5.726-10.719,9.827-15.035c2.714-2.856,6.373-3.483,5.202,1.439c-2.164,9.093-8.821,19.042-8.724,28.474
			c0.16,15.317,17.572,11.154,25.136,4.069c0.337,5.944,3.746,11.165,10.472,11.324c5.676,0.134,9.363-0.241,12.515-3.892
			c-2.466,2.557-3.21,7.663-4.565,11.042c-1.221,3.046-6.064,0.662-9.021,0.245c-10.488-1.48-21.51-2.101-31.979-0.172
			c-7.501,1.381-16.698,4.799-17.982,13.421c-1.536,10.309,12.673,14.947,20.224,16.969c10.536,2.821,22.233,4.552,32.273-0.831
			c4.501-2.413,6.79-6.114,9.104-10.518c0.459-0.875,4.42-10.018,4.961-9.87c10.989,3.018,21.711,8.62,30.944,15.209
			c3.771,2.69,9.611,6.632,10.047,11.749C391.273,125.183,393.857,120.717,391.463,116.632
			C390.443,114.893,394.975,122.624,391.463,116.632z M183.812,36.375c1.909-2.957,13.439-11.677,10.46-2.726
			c-2.603,7.82-8.096,12.951-16.057,15.008C178.696,44.224,181.456,40.023,183.812,36.375z M144.04,38.707
			c1.73-3.064,12.731-12.462,10.287-3.348c-2.136,7.964-7.321,13.412-15.148,15.94C139.398,46.845,141.905,42.488,144.04,38.707
			C147.111,33.267,138.703,48.161,144.04,38.707z M92.31,26.725c-4.059-3.206,4.238-5.988,5.212,2.522
			C95.596,28.828,93.866,27.954,92.31,26.725C90.886,25.6,95.082,28.915,92.31,26.725z M329.965,112.89
			c-7.983,8.976-27.801,3.769-36.214-2.412c-6.668-4.898,4.214-9.743,8.183-11.197c11.095-4.063,23.595-3.188,34.958-0.83
			C335.092,103.147,333.354,109.081,329.965,112.89C327.996,115.104,332.512,110.027,329.965,112.89z M346.519,72.07
			c-1.85,3.87-9.358,11.205-13.58,5.873c-4.651-5.875-0.193-16.831,3.236-22.111c2.354-3.624,10.525-13.696,15.052-7.385
			C355.705,54.69,349.354,66.135,346.519,72.07C343.76,77.843,348.669,67.57,346.519,72.07z"/>
		<path fill="#FFFFFF" d="M371.597,72.267c0.707-0.723,3.124-5.454,3.987-5.418c2.437,6.684,2.305,5.221-2.074,10.138
			c-4.253,4.776-9.198,15.683-1.403,19.686c4.917,2.525,13.063,1.343,16.467-3.261c4.604-6.229,0.889-16.596-0.643-23.273
			c-1.896-8.267-4.122-14.129,3.374-19.728c3.024-2.259-8.625-10.143-13.429-4.876c-2.417,2.649-3.542,7.402-5.079,10.562
			c-1.792,3.686-4.376,7.03-6.606,10.454c-1.049,1.609-3.83,4.761-3.666,6.875C362.683,75.481,370.785,73.097,371.597,72.267
			C372.774,71.063,368.894,75.031,371.597,72.267z M380.403,86.786c-0.18,1.758-1.905,7.762-4.487,4.128
			c-2.373-3.339,1.812-8.299,4.041-10.588C380.517,82.442,380.626,84.604,380.403,86.786
			C379.568,94.975,380.812,82.785,380.403,86.786z"/>
	</g>
</g>
</svg>
