
<svg version="1.1" id="Layer_1" xmlns="http://www.w3.org/2000/svg" xmlns:xlink="http://www.w3.org/1999/xlink" x="0px" y="0px"
	 width="28px" height="28px" viewBox="0 0 28 28" enable-background="new 0 0 28 28" xml:space="preserve">
<g>
	<polyline fill="none" stroke="#231F20" stroke-linecap="round" stroke-linejoin="round" stroke-miterlimit="10" points="
		44.061,24.787 37.061,4.287 30.082,24.787 	"/>
	
		<line fill="none" stroke="#231F20" stroke-linecap="round" stroke-linejoin="round" stroke-miterlimit="10" x1="32.52" y1="17.787" x2="41.52" y2="17.787"/>
	
		<line fill="none" stroke="#231F20" stroke-linecap="round" stroke-linejoin="round" stroke-miterlimit="10" x1="28.582" y1="24.787" x2="31.602" y2="24.787"/>
	
		<line fill="none" stroke="#231F20" stroke-linecap="round" stroke-linejoin="round" stroke-miterlimit="10" x1="42.561" y1="24.787" x2="45.582" y2="24.787"/>
	<polyline fill="none" stroke="#231F20" stroke-linecap="round" stroke-linejoin="round" stroke-miterlimit="10" points="
		50.582,24.787 45.984,11.321 43.625,18.253 	"/>
	
		<line fill="none" stroke="#231F20" stroke-linecap="round" stroke-linejoin="round" stroke-miterlimit="10" x1="45.002" y1="19.787" x2="48.77" y2="19.787"/>
</g>
<line fill="none" stroke="#231F20" stroke-linecap="round" stroke-linejoin="round" stroke-miterlimit="10" x1="39.936" y1="24.787" x2="41.92" y2="24.787"/>
<text transform="matrix(1 0 0 1 -19.4146 15.6045)" font-family="'Lavanderia-Delicate'" font-size="12">L</text>
<path fill="none" stroke="#000000" stroke-width="0.78" stroke-miterlimit="10" d="M10.559,7.535
	c-1.315-0.362-2.197-0.289-2.81,0.105C6.847,8.222,6.057,9.399,5.692,10.4c-0.473,1.294-0.481,3.236,0.285,4.402
	c1.414,2.153,4.166,2.518,6.524,2.316c3.371-0.287,6.773-2.606,8.125-4.096c1.44-1.588,1.724-2.313,2.358-4.854
	c0.635-2.539,0.319-3.053-0.102-4.246S21.624,2,19.558,2c-1.969,0-2.831,1.273-3.461,3.502c-0.755,2.676-0.874,4.641-1.411,6.795
	c-0.495,1.986-3.509,11.982-5.621,13.278c-1.115,0.686-2.739,0.902-4.041,0.729c-1.581-0.213-1.451-2.792-0.44-3.677
	c1.234-1.078,3.395-1.407,4.969-0.987c1.576,0.419,2.056,1.784,3.022,2.865c1.608,1.799,3.558,1.728,5.767,1.731
	c0,0,1.655,0.064,2.187-1.649"/>
</svg>
