<?xml version="1.0" encoding="utf-8"?>
<!-- Generator: Adobe Illustrator 16.0.0, SVG Export Plug-In . SVG Version: 6.00 Build 0)  -->
<!DOCTYPE svg PUBLIC "-//W3C//DTD SVG 1.1//EN" "http://www.w3.org/Graphics/SVG/1.1/DTD/svg11.dtd">
<svg version="1.1" id="Layer_1" xmlns="http://www.w3.org/2000/svg" xmlns:xlink="http://www.w3.org/1999/xlink" x="0px" y="0px"
	 width="28px" height="28px" viewBox="0 0 28 28" enable-background="new 0 0 28 28" xml:space="preserve">
<path fill="none" stroke="#000000" stroke-miterlimit="10" d="M10.559,7.535C9.244,7.173,8.362,7.246,7.749,7.64
	C6.847,8.222,6.057,9.399,5.692,10.4c-0.473,1.294-0.481,3.236,0.285,4.402c1.414,2.153,4.166,2.519,6.524,2.316
	c3.371-0.287,6.772-2.606,8.125-4.096c1.44-1.588,1.724-2.313,2.358-4.854c0.635-2.539,0.318-3.053-0.103-4.246
	C22.461,2.729,21.624,2,19.559,2c-1.97,0-2.832,1.273-3.461,3.502c-0.756,2.676-0.875,4.641-1.412,6.795
	c-0.495,1.986-3.509,11.982-5.621,13.278c-1.115,0.686-2.739,0.901-4.041,0.729c-1.581-0.214-1.451-2.793-0.44-3.678
	c1.234-1.078,3.395-1.406,4.969-0.986c1.576,0.418,2.056,1.783,3.022,2.864c1.608,1.8,3.091,2.032,5.3,2.036
	c0,0,2.122-0.241,2.654-1.954"/>
</svg>
