<?xml version="1.0" encoding="utf-8"?>
<!-- Generator: Adobe Illustrator 16.0.0, SVG Export Plug-In . SVG Version: 6.00 Build 0)  -->
<!DOCTYPE svg PUBLIC "-//W3C//DTD SVG 1.1//EN" "http://www.w3.org/Graphics/SVG/1.1/DTD/svg11.dtd">
<svg version="1.1" id="Layer_1" xmlns="http://www.w3.org/2000/svg" xmlns:xlink="http://www.w3.org/1999/xlink" x="0px" y="0px"
	 width="28px" height="28px" viewBox="0 0 28 28" enable-background="new 0 0 28 28" xml:space="preserve">
<g>
	<g>
		<path fill="none" stroke="#231F20" stroke-linejoin="round" stroke-miterlimit="10" d="M5.578,24.631
			c-0.586,0.586-1.537,0.586-2.121,0c-0.586-0.586-0.586-1.535,0-2.121l6.57-6.572l2.121,2.121L5.578,24.631z"/>
		
			<line fill="none" stroke="#231F20" stroke-linecap="round" stroke-linejoin="round" stroke-miterlimit="10" x1="8.969" y1="14.877" x2="13.209" y2="19.118"/>
		
			<line fill="none" stroke="#231F20" stroke-linejoin="round" stroke-miterlimit="10" x1="21.768" y1="6.319" x2="11.08" y2="17.008"/>
		<polygon fill="none" stroke="#231F20" stroke-linejoin="round" stroke-miterlimit="10" points="22.951,7.503 20.477,5.028 
			24.018,2.569 25.518,4.069 		"/>
	</g>
	<path fill="none" stroke="#231F20" stroke-linejoin="round" stroke-miterlimit="10" d="M13.907,11.882l-3.745-3.745
		c0.616-1.457,0.334-3.203-0.854-4.389c-1.187-1.187-2.857-1.47-4.314-0.854l1.869,2.109v2h-2L2.799,5.09
		C2.183,6.546,2.466,8.255,3.653,9.442c1.187,1.188,2.934,1.451,4.389,0.835l3.746,3.736"/>
	<path fill="none" stroke="#231F20" stroke-linejoin="round" stroke-miterlimit="10" d="M13.907,16.124l3.747,3.748
		c-0.616,1.456-0.334,3.201,0.854,4.39c1.188,1.187,2.934,1.469,4.391,0.853l-2.034-2.108v-2h2l2.153,1.987
		c0.617-1.456,0.334-3.202-0.854-4.389s-2.934-1.47-4.389-0.854l-3.745-3.746"/>
</g>
</svg>
