
<svg version="1.1" id="Layer_1" xmlns="http://www.w3.org/2000/svg" xmlns:xlink="http://www.w3.org/1999/xlink" x="0px" y="0px"
	 width="28px" height="28px" viewBox="0 0 28 28" enable-background="new 0 0 28 28" xml:space="preserve">
<path fill="none" stroke="#231F20" stroke-miterlimit="10" d="M18.5,14.534c0,2.761-2.239,5-5,5c-2.762,0-5-2.239-5-5v-5
	c0-2.761,2.238-5,5-5c2.761,0,5,2.239,5,5V14.534z"/>
<line fill="none" stroke="#231F20" stroke-miterlimit="10" x1="13.5" y1="21.534" x2="13.5" y2="25.034"/>
<line fill="none" stroke="#231F20" stroke-linecap="round" stroke-miterlimit="10" x1="14.5" y1="5.034" x2="14.5" y2="7.534"/>
<line fill="none" stroke="#231F20" stroke-linecap="round" stroke-miterlimit="10" x1="12.5" y1="5.034" x2="12.5" y2="7.534"/>
<line fill="none" stroke="#231F20" stroke-miterlimit="10" x1="6.791" y1="16.5" x2="20.209" y2="16.5"/>
<line fill="none" stroke="#231F20" stroke-linecap="round" stroke-miterlimit="10" x1="8.5" y1="10.5" x2="11.5" y2="10.5"/>
<line fill="none" stroke="#231F20" stroke-linecap="round" stroke-miterlimit="10" x1="8.5" y1="12.5" x2="11.5" y2="12.5"/>
<line fill="none" stroke="#231F20" stroke-linecap="round" stroke-miterlimit="10" x1="15.5" y1="10.5" x2="18.5" y2="10.5"/>
<line fill="none" stroke="#231F20" stroke-linecap="round" stroke-miterlimit="10" x1="15.5" y1="12.5" x2="18.5" y2="12.5"/>
<path fill="none" stroke="#231F20" stroke-linecap="round" stroke-miterlimit="10" d="M6.5,13v1.5c0,3.866,3.134,7,7,7s7-3.134,7-7
	V13"/>
</svg>
